<svg width="275" height="191" viewBox="0 0 275 191" fill="none" xmlns="http://www.w3.org/2000/svg">
<path d="M140.69 0.00976562C169.82 0.401438 187.908 12.8609 198.17 29.7227L198.661 30.542C200.643 33.9091 202.298 37.407 203.673 40.959C206.283 35.3625 210.797 30.7273 217.14 27.8086C229.122 22.2968 245.565 23.8854 263.986 32.7988C272.183 36.7659 274.073 45.812 274.267 52.4736C274.48 59.7681 272.875 68.1542 270.44 75.9395C269.437 79.146 268.259 82.3479 266.951 85.4385L260.773 89.7422C260.066 90.2348 259.611 91.0134 259.528 91.8711C259.445 92.7287 259.741 93.5799 260.34 94.1992L261.82 95.7285C261.403 96.4361 260.983 97.1283 260.554 97.7998C258.58 100.893 256.351 103.795 253.902 106.114C251.55 108.341 248.388 110.608 244.517 111.355C237.165 112.774 231.151 111.547 226.499 109.975C224.75 109.384 223.103 108.706 221.812 108.172C220.218 109.652 218.142 111.391 215.52 113.186C210.439 116.664 203.429 120.283 194.114 122.77L168.94 147.364C167.353 148.914 165.22 149.784 163.001 149.784H150.107L146.817 152.477C145.388 153.645 143.596 154.284 141.751 154.284H127.381C124.396 154.284 120.655 153.621 119.279 150.966C116.499 147 118.999 144 120.846 141.671L128.461 130.885C125.995 130.966 118.651 130.95 115.048 130.905L94.9723 147.79C93.4409 149.078 91.5014 149.784 89.5006 149.784H78.1071L75.1051 152.358L75.1041 152.359C73.6522 153.603 71.8029 154.284 69.8971 154.284H53.5475C50.4943 154.284 47.7042 152.545 46.361 149.8C45.0184 147.054 45.3579 143.783 47.2321 141.373L53.3805 133.468C52.451 133.465 47.4908 133.451 46.5006 133.421C24.3951 132.758 7.90278 120.598 4.04457 118.402C0.412051 116.335 -1.01695 111.82 0.764297 108.039L0.934219 107.699C2.75346 104.267 6.78994 102.636 10.4821 103.843L10.8493 103.973C13.9426 105.15 26.8148 107.37 43.7692 100.589C51.6343 97.4426 55.9845 93.3077 58.7135 89.5547L59.1207 88.9814C59.2553 88.7873 59.3861 88.5932 59.5133 88.4004C58.977 87.8597 58.4661 87.3029 57.9879 86.7275C57.1789 85.7537 56.6107 84.6003 56.3336 83.3633C55.8548 81.2238 55.6473 77.6362 57.4752 74.1758C58.4344 72.3604 59.8089 70.8665 61.4996 69.7725C63.0497 57.1726 67.9095 41.366 78.317 27.9092C90.5547 12.0867 110.125 0.000282945 139.271 0L140.69 0.00976562Z" fill="white"/>
<path fill-rule="evenodd" clip-rule="evenodd" d="M221.204 42.1843C228.964 38.6144 241.704 38.8788 258.661 47.0837C260.919 48.1762 262.568 51.3043 262.739 57.1774C262.904 62.8209 261.634 69.9207 259.408 77.0387C258.27 80.6776 256.899 84.2633 255.384 87.5993C254.941 87.3419 254.428 87.1921 253.879 87.1921C246.335 87.192 240.662 85.3552 237.039 83.654L236.342 83.3161L236.202 83.2507C234.749 82.6136 233.034 83.2224 232.316 84.6579C231.599 86.0935 232.141 87.8293 233.522 88.61L233.658 88.6833L234.489 89.0856C238.575 91.0038 244.671 92.9777 252.586 93.1745C251.984 94.2555 251.371 95.2887 250.749 96.2634C249.079 98.8798 247.4 101 245.806 102.509C244.176 104.053 242.85 104.754 241.899 104.937C236.97 105.888 232.958 105.11 229.488 103.937C227.707 103.335 226.128 102.652 224.513 101.992C223.315 101.502 222.03 100.998 220.749 100.664C220.692 100.63 220.633 100.597 220.572 100.566C219.688 100.113 218.87 100.228 218.483 100.322C218.086 100.419 217.799 100.575 217.667 100.652C217.248 100.897 216.949 101.22 216.939 101.23C216.846 101.326 216.752 101.429 216.679 101.51C216.365 101.86 215.949 102.345 215.3 103.02C214.023 104.349 211.905 106.347 208.772 108.492C202.524 112.77 192.111 117.719 176.043 118.99C175.51 119.032 174.998 119.215 174.562 119.52L174.38 119.659L140.147 147.667H125.639L141.707 127.743C142.381 126.789 142.439 125.53 141.857 124.517C141.275 123.505 140.157 122.922 138.993 123.024C117.698 124.9 125.558 124.231 96.8359 124.13C96.2062 124.127 95.5942 124.323 95.085 124.686L94.873 124.851L68.2549 147.667H51.1484C53.9879 144.016 73.1144 119.706 73.1807 119.622C73.1411 119.642 66.7845 122.951 64.0732 124.018C61.1206 125.18 55.9515 126.098 46.2969 125.808C36.6988 125.52 23.4453 120.701 16.999 117.639C24.0562 117.443 37.7542 118.011 47.3213 114.184C57.131 110.26 63.1158 105.079 67.0322 99.9655C70.1664 95.8737 71.9696 91.7799 73.2461 88.9382H195.265C198.299 89.6441 201.108 88.8602 203.422 87.2555C205.769 85.6279 207.625 83.1644 209.001 80.487C211.734 75.168 213.018 68.1139 211.915 62.3219C210.135 52.9774 213.721 45.627 221.204 42.1843ZM238 54.9997C235.239 54.9997 233 57.6861 233 60.9997C233 64.3134 235.239 66.9997 238 66.9997C240.761 66.9997 243 64.3134 243 60.9997C243 57.6861 240.761 54.9997 238 54.9997Z" fill="black"/>
<path d="M99.8775 17.3016C101.321 16.601 103.051 17.1628 103.815 18.5535L103.886 18.6912L116.368 44.41C131.288 47.4765 140.156 47.5107 155.534 44.3758L170.421 19.324L170.503 19.1932C171.381 17.8717 173.152 17.4575 174.532 18.2771C175.956 19.1235 176.425 20.9651 175.579 22.3894L160.854 47.1668L174.369 74.115C175.112 75.5961 174.513 77.3996 173.032 78.1424C171.551 78.8848 169.748 78.2862 169.005 76.8055L155.785 50.4441C140.359 53.5099 130.809 53.4546 115.718 50.4002L97.5211 78.6268C96.6233 80.0191 94.7661 80.42 93.3736 79.5223C91.9813 78.6244 91.5804 76.7673 92.4781 75.3748L110.877 46.8377L98.4879 21.3103C97.7647 19.8198 98.387 18.0249 99.8775 17.3016Z" fill="black"/>
<path d="M94.4991 133L82.4991 143.5H90.4991L103.999 133H94.4991Z" fill="black"/>
<path d="M171.499 128.5L154.499 143.5H165.999L183.999 126.366L171.499 128.5Z" fill="black"/>
<ellipse cx="78.9991" cy="186" rx="46" ry="5" fill="white"/>
</svg>
