<svg width="275" height="191" viewBox="0 0 275 191" fill="none" xmlns="http://www.w3.org/2000/svg">
<path d="M140.691 0.00976562C169.821 0.401438 187.909 12.8609 198.17 29.7227L198.662 30.542C200.644 33.9091 202.298 37.407 203.673 40.959C206.284 35.3625 210.798 30.7273 217.141 27.8086C229.123 22.2968 245.566 23.8854 263.987 32.7988C272.184 36.7659 274.074 45.812 274.268 52.4736C274.481 59.7681 272.875 68.1542 270.441 75.9395C269.438 79.146 268.26 82.3479 266.952 85.4385L260.774 89.7422C260.067 90.2348 259.612 91.0134 259.529 91.8711C259.446 92.7287 259.742 93.5799 260.341 94.1992L261.821 95.7285C261.404 96.4361 260.984 97.1283 260.555 97.7998C258.58 100.893 256.352 103.795 253.903 106.114C251.551 108.341 248.388 110.608 244.518 111.355C237.165 112.774 231.152 111.547 226.5 109.975C224.751 109.384 223.104 108.706 221.813 108.172C220.219 109.652 218.143 111.391 215.521 113.186C210.44 116.664 203.43 120.283 194.115 122.77L168.941 147.364C167.354 148.914 165.221 149.784 163.001 149.784H150.108L146.818 152.477C145.389 153.645 143.597 154.284 141.751 154.284H127.382C124.397 154.284 120.656 153.621 119.28 150.966C116.5 147 119 144 120.847 141.671L128.461 130.885C125.995 130.966 118.652 130.95 115.049 130.905L94.9731 147.79C93.4417 149.078 91.5023 149.784 89.5015 149.784H78.1079L75.106 152.358L75.105 152.359C73.6531 153.603 71.8037 154.284 69.8979 154.284H53.5483C50.4952 154.284 47.7051 152.545 46.3618 149.8C45.0193 147.054 45.3588 143.783 47.2329 141.373L53.3813 133.468C52.4519 133.465 47.4916 133.451 46.5015 133.421C24.396 132.758 7.90362 120.598 4.04541 118.402C0.41289 116.335 -1.01611 111.82 0.765136 108.039L0.935058 107.699C2.7543 104.267 6.79078 102.636 10.4829 103.843L10.8501 103.973C13.9434 105.15 26.8156 107.37 43.77 100.589C51.6352 97.4426 55.9854 93.3077 58.7144 89.5547L59.1216 88.9814C59.2561 88.7873 59.3869 88.5932 59.5142 88.4004C58.9779 87.8597 58.4669 87.3029 57.9888 86.7275C57.1798 85.7537 56.6115 84.6003 56.3345 83.3633C55.8557 81.2238 55.6482 77.6362 57.4761 74.1758C58.4352 72.3604 59.8098 70.8665 61.5005 69.7725C63.0506 57.1726 67.9103 41.366 78.3179 27.9092C90.5556 12.0867 110.126 0.000282945 139.272 0L140.691 0.00976562Z" fill="#424242"/>
<path fill-rule="evenodd" clip-rule="evenodd" d="M221.205 42.1843C228.965 38.6144 241.705 38.8788 258.662 47.0837C260.919 48.1762 262.569 51.3043 262.74 57.1774C262.905 62.8209 261.635 69.9207 259.409 77.0387C258.271 80.6776 256.899 84.2633 255.385 87.5993C254.942 87.3419 254.429 87.1921 253.88 87.1921C246.335 87.192 240.663 85.3552 237.04 83.654L236.343 83.3161L236.203 83.2507C234.749 82.6136 233.035 83.2224 232.317 84.6579C231.599 86.0935 232.141 87.8293 233.523 88.61L233.659 88.6833L234.49 89.0856C238.576 91.0038 244.672 92.9777 252.587 93.1745C251.985 94.2555 251.372 95.2887 250.75 96.2634C249.08 98.8798 247.401 101 245.807 102.509C244.177 104.053 242.851 104.754 241.9 104.937C236.971 105.888 232.959 105.11 229.489 103.937C227.707 103.335 226.128 102.652 224.514 101.992C223.316 101.502 222.031 100.998 220.75 100.664C220.693 100.63 220.634 100.597 220.573 100.566C219.689 100.113 218.871 100.228 218.484 100.322C218.087 100.419 217.799 100.575 217.668 100.652C217.249 100.897 216.95 101.22 216.94 101.23C216.847 101.326 216.752 101.429 216.68 101.51C216.366 101.86 215.949 102.345 215.301 103.02C214.024 104.349 211.906 106.347 208.773 108.492C202.525 112.77 192.111 117.719 176.044 118.99C175.51 119.032 174.999 119.215 174.562 119.52L174.381 119.659L140.148 147.667H125.64L141.708 127.743C142.382 126.789 142.44 125.53 141.858 124.517C141.276 123.505 140.158 122.922 138.994 123.024C117.699 124.9 125.559 124.231 96.8368 124.13C96.2071 124.127 95.5951 124.323 95.0858 124.686L94.8739 124.851L68.2557 147.667H51.1493C53.9888 144.016 73.1153 119.706 73.1815 119.622C73.1419 119.642 66.7854 122.951 64.0741 124.018C61.1214 125.18 55.9523 126.098 46.2977 125.808C36.6996 125.52 23.4462 120.701 16.9999 117.639C24.0571 117.443 37.755 118.011 47.3221 114.184C57.1318 110.26 63.1166 105.079 67.0331 99.9655C70.1673 95.8737 71.9705 91.7799 73.2469 88.9382H195.266C198.3 89.6441 201.109 88.8602 203.423 87.2555C205.77 85.6279 207.626 83.1644 209.002 80.487C211.734 75.168 213.019 68.1139 211.916 62.3219C210.136 52.9774 213.722 45.627 221.205 42.1843ZM238.001 54.9997C235.24 54.9997 233.001 57.6861 233.001 60.9997C233.001 64.3134 235.239 66.9997 238.001 66.9997C240.762 66.9997 243.001 64.3134 243.001 60.9997C243.001 57.6861 240.762 54.9997 238.001 54.9997Z" fill="white"/>
<path d="M99.8784 17.3016C101.322 16.601 103.052 17.1628 103.816 18.5535L103.887 18.6912L116.369 44.41C131.289 47.4765 140.156 47.5107 155.535 44.3758L170.421 19.324L170.503 19.1932C171.382 17.8717 173.153 17.4575 174.533 18.2771C175.957 19.1235 176.426 20.9651 175.58 22.3894L160.855 47.1668L174.37 74.115C175.112 75.5961 174.514 77.3996 173.033 78.1424C171.552 78.8848 169.749 78.2862 169.006 76.8055L155.786 50.4441C140.36 53.5099 130.81 53.4546 115.719 50.4002L97.522 78.6268C96.6241 80.0191 94.7669 80.42 93.3745 79.5223C91.9821 78.6244 91.5812 76.7673 92.479 75.3748L110.877 46.8377L98.4887 21.3103C97.7656 19.8198 98.3879 18.0249 99.8784 17.3016Z" fill="white"/>
<path d="M94.5 133L82.5 143.5H90.5L104 133H94.5Z" fill="white"/>
<path d="M171.5 128.5L154.5 143.5H166L184 126.366L171.5 128.5Z" fill="white"/>
<ellipse cx="79" cy="186" rx="46" ry="5" fill="#424242"/>
</svg>
